<?xml version="1.0" encoding="UTF-8"?>
<svg xmlns="http://www.w3.org/2000/svg" xmlns:xlink="http://www.w3.org/1999/xlink" width="854" height="480" viewBox="0 0 854 480">
<defs>
<g>
<g id="glyph-0-0">
<path d="M 1.800781 -3.488281 L 1.800781 -3.382812 C 1.703125 -3.378906 1.621094 -3.367188 1.554688 -3.34375 C 1.488281 -3.320312 1.453125 -3.269531 1.453125 -3.195312 C 1.453125 -3.144531 1.523438 -3.011719 1.65625 -2.789062 C 1.726562 -2.671875 1.816406 -2.527344 1.925781 -2.359375 C 2.074219 -2.5625 2.1875 -2.722656 2.257812 -2.839844 C 2.382812 -3.027344 2.445312 -3.148438 2.445312 -3.207031 C 2.445312 -3.273438 2.417969 -3.316406 2.367188 -3.339844 C 2.3125 -3.363281 2.238281 -3.375 2.140625 -3.382812 L 2.140625 -3.488281 L 3.363281 -3.488281 L 3.363281 -3.382812 C 3.234375 -3.375 3.117188 -3.339844 3.003906 -3.277344 C 2.890625 -3.21875 2.800781 -3.140625 2.734375 -3.042969 L 2.085938 -2.105469 L 3.085938 -0.585938 C 3.214844 -0.386719 3.324219 -0.257812 3.414062 -0.203125 C 3.503906 -0.144531 3.609375 -0.113281 3.726562 -0.105469 L 3.726562 0 L 2.15625 0 L 2.15625 -0.105469 L 2.265625 -0.113281 C 2.324219 -0.117188 2.375 -0.136719 2.414062 -0.167969 C 2.453125 -0.199219 2.472656 -0.234375 2.472656 -0.28125 C 2.472656 -0.328125 2.425781 -0.433594 2.328125 -0.601562 C 2.28125 -0.679688 2.214844 -0.792969 2.121094 -0.929688 C 2.078125 -1 2.015625 -1.09375 1.929688 -1.214844 C 1.847656 -1.335938 1.773438 -1.441406 1.714844 -1.527344 L 1.105469 -0.574219 C 1.03125 -0.460938 0.984375 -0.382812 0.96875 -0.34375 C 0.949219 -0.308594 0.941406 -0.277344 0.941406 -0.25 C 0.941406 -0.203125 0.960938 -0.171875 1 -0.15625 C 1.039062 -0.140625 1.125 -0.125 1.257812 -0.105469 L 1.257812 0 L 0.132812 0 L 0.132812 -0.105469 C 0.269531 -0.132812 0.371094 -0.167969 0.4375 -0.210938 C 0.503906 -0.253906 0.589844 -0.355469 0.699219 -0.511719 L 1.582031 -1.800781 L 0.855469 -2.90625 C 0.707031 -3.125 0.605469 -3.253906 0.550781 -3.296875 C 0.496094 -3.335938 0.375 -3.367188 0.1875 -3.382812 L 0.1875 -3.488281 Z "/>
</g>
<g id="glyph-0-1">
<rect x="0" y="0" width="0" height="0" mask="url(#mask-0)"/>
</g>
<g id="glyph-0-2">
<path d="M 4.160156 -1.445312 L 4.160156 -0.914062 L 0.230469 -0.914062 L 0.230469 -1.445312 Z M 4.160156 -3.015625 L 4.160156 -2.484375 L 0.230469 -2.484375 L 0.230469 -3.015625 Z "/>
</g>
<g id="glyph-0-3">
<path d="M 1.859375 -0.140625 C 2.234375 -0.140625 2.488281 -0.34375 2.628906 -0.75 C 2.765625 -1.160156 2.835938 -1.75 2.835938 -2.523438 C 2.835938 -3.136719 2.796875 -3.628906 2.710938 -3.996094 C 2.554688 -4.679688 2.261719 -5.019531 1.832031 -5.019531 C 1.402344 -5.019531 1.105469 -4.667969 0.945312 -3.964844 C 0.863281 -3.589844 0.820312 -3.097656 0.820312 -2.484375 C 0.820312 -1.910156 0.863281 -1.449219 0.949219 -1.105469 C 1.113281 -0.460938 1.414062 -0.140625 1.859375 -0.140625 Z M 1.847656 -5.226562 C 2.429688 -5.226562 2.882812 -4.921875 3.207031 -4.308594 C 3.460938 -3.816406 3.589844 -3.25 3.589844 -2.609375 C 3.589844 -2.105469 3.511719 -1.628906 3.351562 -1.183594 C 3.054688 -0.347656 2.542969 0.0703125 1.816406 0.0703125 C 1.316406 0.0703125 0.90625 -0.15625 0.585938 -0.609375 C 0.242188 -1.089844 0.0664062 -1.75 0.0664062 -2.578125 C 0.0664062 -3.230469 0.183594 -3.792969 0.414062 -4.265625 C 0.726562 -4.90625 1.203125 -5.226562 1.847656 -5.226562 Z "/>
</g>
</g>
<image id="source-168" x="0" y="0" width="0" height="0"/>
<mask id="mask-0">
<use xlink:href="#source-168"/>
</mask>
</defs>
<g fill="rgb(100%, 100%, 100%)" fill-opacity="1">
<use xlink:href="#glyph-0-0" x="30" y="25.833008"/>
<use xlink:href="#glyph-0-1" x="34" y="25.833008"/>
<use xlink:href="#glyph-0-2" x="36" y="25.833008"/>
<use xlink:href="#glyph-0-1" x="40" y="25.833008"/>
<use xlink:href="#glyph-0-3" x="42" y="25.833008"/>
</g>
</svg>
